<?xml version="1.0" ?><svg data-name="Layer 1" id="Layer_1" viewBox="0 0 64 64" xmlns="http://www.w3.org/2000/svg"><defs><style>.cls-1{fill:#4fbe9f;}.cls-2{fill:#09816c;}</style></defs><title/><path class="cls-1" d="M45.38,8H38.54A1.77,1.77,0,0,0,37,9l-3.49,6.77A2.82,2.82,0,0,1,31,17.24H18.62A1.76,1.76,0,0,0,16.86,19v8.73a1.76,1.76,0,0,0,1.76,1.76h5.89a1.13,1.13,0,0,1,1,1.65L17.05,47.51a1.86,1.86,0,0,0-.19.81v5.92A1.76,1.76,0,0,0,18.62,56h6.82a1.77,1.77,0,0,0,1.57-1l3.5-6.77A2.81,2.81,0,0,1,33,46.76H45.38A1.76,1.76,0,0,0,47.14,45V36.27a1.76,1.76,0,0,0-1.76-1.76h-5.9a1.14,1.14,0,0,1-1-1.65L47,16.46a1.89,1.89,0,0,0,.19-.81V9.76A1.76,1.76,0,0,0,45.38,8Zm1.76,0"/><path class="cls-2" d="M30.58,48.17A2.8,2.8,0,0,1,33,46.76H45.38A1.76,1.76,0,0,0,47.14,45V36.27a1.76,1.76,0,0,0-1.76-1.76h-5.9a1.13,1.13,0,0,1-1-1.53Z"/></svg>